<svg xmlns="http://www.w3.org/2000/svg" viewBox="0 0 291 291"><title>Asset 4</title><g id="Layer_2" data-name="Layer 2"><g id="Layer_1-2" data-name="Layer 1"><path d="M291,92.15v-9.7H208.55V0h-9.7V82.45H97V0H87.3V82.45H0v9.7H87.3v29.1H62.08a3.58,3.58,0,0,0-2.42.49L22.8,141.14a5.13,5.13,0,0,0,0,8.72l36.86,19.41a4.39,4.39,0,0,0,2.42.48H87.3v29.1H0v9.7H87.3V291H97V208.55H198.85V291h9.7V208.55H291v-9.7H208.55v-29.1h58.2a4.58,4.58,0,0,0,4.85-4.85V126.1a4.58,4.58,0,0,0-4.85-4.85h-58.2V92.15ZM63.05,131H232.8v9.7H82.45v9.7H232.8v9.7H67.9v-19.4H58.2v17L35.41,145.5Zm135.8,67.9H97v-29.1H198.85Zm63-38.8H242.5V131h19.4Zm-63-38.8H97V92.15H198.85Z"/><path d="M252.2,219.7a28.62,28.62,0,1,0,28.62,28.62A28.37,28.37,0,0,0,252.2,219.7Zm0,47.53a19.27,19.27,0,0,1-18.92-18.91A18.94,18.94,0,0,1,252.2,229.4a18.64,18.64,0,0,1,18.92,18.92A18.94,18.94,0,0,1,252.2,267.23Z"/><polygon points="132.89 67.42 149.87 50.44 167.32 67.9 174.12 61.11 157.14 43.65 174.12 26.68 166.84 19.89 149.87 36.86 133.38 19.89 126.58 27.16 143.07 43.65 126.1 60.63 132.89 67.42"/><polygon points="67.42 235.22 60.14 228.44 43.16 245.41 26.68 228.44 19.89 235.71 36.38 252.2 19.4 269.18 26.19 275.96 43.16 258.99 60.63 276.45 67.42 269.66 50.44 252.2 67.42 235.22"/><rect x="223.1" y="24.25" width="33.95" height="9.7"/><rect x="223.1" y="48.5" width="58.2" height="9.7"/><rect x="140.65" y="257.05" width="33.95" height="9.7"/><rect x="116.4" y="232.8" width="58.2" height="9.7"/><path d="M43.65,68.39A28.36,28.36,0,0,0,72.26,39.77,28.36,28.36,0,0,0,43.65,11.15,28.37,28.37,0,0,0,15,39.77,28.37,28.37,0,0,0,43.65,68.39Zm0-47.53A18.63,18.63,0,0,1,62.56,39.77,18.64,18.64,0,0,1,43.65,58.69,18.64,18.64,0,0,1,24.73,39.77,18.64,18.64,0,0,1,43.65,20.86Z"/></g></g></svg>