<svg xmlns="http://www.w3.org/2000/svg" viewBox="0 0 290 229.77"><title>Asset 6</title><g id="Layer_2" data-name="Layer 2"><g id="Layer_1-2" data-name="Layer 1"><path d="M117.28,223.49c-25,0-46.36-7.71-64.59-23.24-6.66-5.68-12-12.71-17.2-19.51l-1.5-2c-1-1.27-1.4-1.48-1.44-1.5a4.63,4.63,0,0,0-1.38.35c-4.66,1.72-9.46,3.24-14.53,4.85L9.5,184.77,0,187.86,37.9,89,121,149.05,86,161.67c16.9,26.92,38.32,40,67,41l3.58.12.93,3.7c.65,2.61,1.47,5.86-.4,8.92a9.31,9.31,0,0,1-6.2,4A151.75,151.75,0,0,1,117.28,223.49Zm-84.7-55.73c4.31,0,7,2.66,9,5.23l1.51,2c4.88,6.4,9.92,13,15.81,18,22.49,19.16,49.28,25.06,83.93,18.37-28.73-3.85-51.06-20.23-68-49.85l-2.83-4.93,28.84-10.39L42.36,104,16,172.67c4.25-1.35,8-2.59,11.85-4A13.51,13.51,0,0,1,32.58,167.76Z"/><path d="M247.36,138.53l-80.11-64,35.58-10.91c-7.48-14-17.24-24.84-29.72-32.89a70.25,70.25,0,0,0-29-10.57c-3.49-.48-7.83-3.84-8.43-7.61s3.2-9.17,7.16-9.91c36.08-6.76,65.27-.52,89.23,19.08,7.46,6.1,13.35,13.9,19,21.45,1.56,2.06,3.17,4.2,4.77,6.23A11.38,11.38,0,0,0,257,50.68a7.34,7.34,0,0,0,.74-.19c4.93-1.58,10-2.89,15.34-4.29,2.34-.6,4.77-1.24,7.33-1.92L290,41.69ZM187.3,78.34l56.33,45L273.29,56c-4.55,1.18-8.62,2.27-12.67,3.57-6.24,2-9.58-.88-12.26-4.29-1.65-2.11-3.29-4.28-4.88-6.38-5.35-7.1-10.89-14.44-17.46-19.81C205.31,12.15,180,6.3,148.85,11.26a79.94,79.94,0,0,1,29.42,11.45c15.45,10,27.11,23.62,35.66,41.78l2.34,5Z"/><path d="M208.13,229.77H174.77l2.2-6.33c1.47-4.22,2.87-8.34,4.25-12.39,3.37-9.9,6.55-19.25,10.16-28.54,2.74-7.08,9.07-11.13,17.37-11.13h.12c11.17.05,22.53.05,33.52,0,9.32,0,18.65,0,28,0,3.2,0,7.74.44,10.31,4s1.55,7.89.57,10.86c-4.06,12.29-8.33,24.69-12.68,36.85-.93,2.59-4.14,6.44-8.09,6.47C243.12,229.75,225.93,229.77,208.13,229.77Zm-20-9.53h6.76c22.24,0,43.26,0,64.5-.14a3.08,3.08,0,0,0,.2-.26c4.32-12.05,8.54-24.34,12.57-36.53a12.54,12.54,0,0,0,.53-2.14,12.69,12.69,0,0,0-2.39-.2c-9.31,0-18.62,0-27.94,0-11,0-22.37,0-33.57,0-4.34,0-7.25,1.68-8.56,5.05-3.53,9.1-6.68,18.36-10,28.16Q189.22,217.15,188.16,220.24Z"/><path d="M72.79,91.39H38.32l2.16-6.32c1.41-4.09,2.76-8.09,4.08-12C47.73,63.67,50.73,54.8,54,45.94c3-8.14,9.56-12.61,18.47-12.61h.09q15.39,0,30.79,0,15.06,0,30.1,0c3.27,0,7.91.44,10.49,4s1.52,8.16.5,11.28c-4.32,13.13-8.32,24.81-12.25,35.71-1,2.74-4.35,6.81-8.45,6.84C106.81,91.37,90.08,91.39,72.79,91.39ZM51.65,81.85H59c22,0,42.75,0,63.81-.16a3.16,3.16,0,0,0,.48-.62c3.86-10.74,7.84-22.34,12.13-35.39a13.08,13.08,0,0,0,.62-2.57,12.27,12.27,0,0,0-2.58-.21c-10,0-20,0-30.06,0q-15.42,0-30.83,0h-.07c-4.89,0-7.91,2-9.52,6.38C59.72,58,56.74,66.78,53.6,76.1,53,78,52.31,79.92,51.65,81.85Z"/><path d="M168.72,220.82,167.51,217c-.18-.57-.43-1.21-.7-1.89a18.06,18.06,0,0,1-1.62-6.51c-.1-9.47-.1-19.08-.1-28.39,0-7.17,0-14.58,0-21.87,0-4.08,1.09-7.24,3.31-9.38s5.27-3.13,9.18-3l1.3,0a63.64,63.64,0,0,0,9.29-.07c7.27-.82,17.61-.59,24,10.47a8,8,0,0,0,2.66.56c9.41.19,19,.16,28.27.13l7.42,0c3,0,11.93,0,12.13,10.95l.08,4.58-4.57.27c-.69,0-1.37.08-2,.13-1.54.11-3.13.23-4.76.23H232.2c-8.77,0-17.84,0-26.75,0-8,0-12.73,3.43-15.37,11s-5.24,15.18-7.77,22.6q-1.69,4.94-3.38,9.86l-1,2.79Zm8-65.32a3.33,3.33,0,0,0-1.77.29,4.65,4.65,0,0,0-.4,2.48c0,7.32,0,14.75,0,21.94,0,6.44,0,13,0,19.62,2.1-6.16,4.26-12.45,6.42-18.64,3.95-11.34,12.36-17.36,24.32-17.41H206a7.16,7.16,0,0,1-1.91-2.22c-2.91-5.34-6.94-7-14.86-6.11a70.14,70.14,0,0,1-10.73.12l-1.27-.05Z"/><path d="M33.25,87.55l-3-8.06c-.38-1-.79-1.9-1.18-2.77a15.51,15.51,0,0,1-1.85-6.39c-.12-10.75-.12-21.67-.11-32.23q0-9.63,0-19.26C27,15,28.11,12,30.25,10s5.2-3.09,9.06-3l1.81.07A65.48,65.48,0,0,0,50.55,7c7-.77,17-.53,23.41,10.32a7.51,7.51,0,0,0,2.6.59c9.14.18,18.47.16,27.49.13h8.81c2.58,0,6.31.32,8.91,3.14,1.91,2.07,2.72,5,2.42,8.64l-.36,4.38H69.32c-10.29,0-14.47,3-17.89,12.87q-3,8.54-5.89,17.08c-1.44,4.17-2.87,8.35-4.32,12.53A7.43,7.43,0,0,1,39.79,79c-.29.36-.71.88-1.33,1.69Zm3.64-70.74a3.79,3.79,0,0,0-.31,2q0,9.65,0,19.29c0,7.42,0,15,0,22.6q2.88-8.4,5.79-16.79c4.58-13.16,12-18.82,25.43-19.23a7.85,7.85,0,0,1-1.94-2.23c-2.88-5.12-6.9-6.8-14.33-6a74.05,74.05,0,0,1-10.82.13L39,16.54a3.94,3.94,0,0,0-2.11.27Z"/></g></g></svg>