<svg xmlns="http://www.w3.org/2000/svg" viewBox="0 0 269.75 289"><title>Asset 8</title><g id="Layer_2" data-name="Layer 2"><g id="Layer_1-2" data-name="Layer 1"><path d="M202.3,178.22a4.82,4.82,0,0,0-4.82-4.82h-28.9a4.82,4.82,0,0,0,0,9.63h28.9A4.81,4.81,0,0,0,202.3,178.22Z"/><path d="M183,53V28.9a4.82,4.82,0,1,0-9.63,0V53a24.11,24.11,0,0,0,24.08,24.09h43.35v91.51a4.82,4.82,0,0,0,9.64,0V72.25a4.82,4.82,0,0,0-4.82-4.82H197.48A14.47,14.47,0,0,1,183,53Z"/><path d="M197.48,115.6H159a4.82,4.82,0,1,0,0,9.63h38.53a4.82,4.82,0,1,0,0-9.63Z"/><path d="M144.5,120.42a4.82,4.82,0,0,0-4.82-4.82h-28.9a4.82,4.82,0,0,0,0,9.63h28.9A4.81,4.81,0,0,0,144.5,120.42Z"/><path d="M110.78,144.5a4.82,4.82,0,0,0,0,9.63h9.64a4.82,4.82,0,0,0,0-9.63Z"/><path d="M110.78,96.33H159a4.82,4.82,0,1,0,0-9.63H110.78a4.82,4.82,0,0,0,0,9.63Z"/><path d="M139.68,154.13h48.17a4.82,4.82,0,1,0,0-9.63H139.68a4.82,4.82,0,0,0,0,9.63Z"/><path d="M168.58,202.3a4.82,4.82,0,0,0,0,9.63h9.64a4.82,4.82,0,0,0,0-9.63Z"/><path d="M149.32,173.4H110.78a4.82,4.82,0,0,0,0,9.63h38.54a4.82,4.82,0,0,0,0-9.63Z"/><path d="M149.32,202.3H110.78a4.82,4.82,0,0,0,0,9.63h38.54a4.82,4.82,0,0,0,0-9.63Z"/><path d="M264,198.4l-9.64-9.63a18.09,18.09,0,0,0-26.07,0l-63.11,63.11a4.82,4.82,0,0,0-1.41,3.4v28.9a4.81,4.81,0,0,0,4.81,4.82h28.9a4.83,4.83,0,0,0,3.41-1.41L264,224.48C271.67,216.81,271.67,206.08,264,198.4Zm-41.94,10.22,7.64,7.64-41.85,41.85-7.64-7.64ZM173.4,279.37V257.28l22.09,22.09Zm28.9-6.81-7.64-7.64,41.85-41.85,7.64,7.64Zm54.89-54.89L251,223.9l-22.09-22.09,6.23-6.23c3.8-3.8,8.63-3.82,12.45,0l9.64,9.63C261.08,209.12,261.08,213.77,257.19,217.67Z"/><path d="M149.32,279.37H24.08A14.48,14.48,0,0,1,9.63,264.92V24.08A14.48,14.48,0,0,1,24.08,9.63H176.22L223,56.39a4.82,4.82,0,0,0,6.81-6.81L181.62,1.41A4.82,4.82,0,0,0,178.22,0H24.08A24.1,24.1,0,0,0,0,24.08V264.92A24.1,24.1,0,0,0,24.08,289H149.32a4.82,4.82,0,0,0,0-9.63Z"/><path d="M149.32,231.2H110.78a4.82,4.82,0,0,0,0,9.63h38.54a4.82,4.82,0,0,0,0-9.63Z"/><path d="M86.7,91.52a4.82,4.82,0,0,0-4.82-4.82H53a4.81,4.81,0,0,0-4.81,4.82v28.9A4.81,4.81,0,0,0,53,125.23h28.9a4.82,4.82,0,0,0,4.82-4.81ZM77.07,115.6H57.8V96.33H77.07Z"/><path d="M53,240.83h28.9A4.81,4.81,0,0,0,86.7,236v-28.9a4.82,4.82,0,0,0-4.82-4.82H53a4.81,4.81,0,0,0-4.81,4.82V236A4.81,4.81,0,0,0,53,240.83Zm4.82-28.9H77.07V231.2H57.8Z"/><path d="M59.21,181.62A4.8,4.8,0,0,0,62.62,183a3.7,3.7,0,0,0,.47,0,4.8,4.8,0,0,0,3.53-2.12L85.89,152a4.82,4.82,0,0,0-8-5.35l-16,24-5.48-5.47A4.82,4.82,0,0,0,49.58,172Z"/></g></g></svg>