<svg xmlns="http://www.w3.org/2000/svg" viewBox="0 0 290 290"><title>Asset 3</title><g id="Layer_2" data-name="Layer 2"><g id="Layer_1-2" data-name="Layer 1"><path d="M127,66.31h0a6,6,0,0,0-5.94,5.94v30.44h-6.24v-.54c-2.08-20.74-22-37.45-42.66-35.78a6,6,0,0,0,1,11.89c14-1.13,28.05,10.46,29.77,24.49H42.25a5.92,5.92,0,0,0-5.89,6.54A39.9,39.9,0,0,0,51,135.8a39.38,39.38,0,0,0,24.54,9c1.19,0,2.44-.06,3.62-.18,16.64-1.79,30.43-14.45,34.53-30h7.42v24.07a5.95,5.95,0,1,0,11.89,0V72.43A6,6,0,0,0,127,66.31ZM77.9,132.77c-6.54.71-13.61-1.55-19.43-6.24a28.52,28.52,0,0,1-8.74-11.89h51.52A28.82,28.82,0,0,1,77.9,132.77Z"/><path d="M241.12,195.54l-29.89-59.09a5.94,5.94,0,0,0-5.29-3.27,5.87,5.87,0,0,0-5.29,3.27l-30.36,60.46a5.94,5.94,0,0,0,2.62,8,6.18,6.18,0,0,0,2.67.65,5.83,5.83,0,0,0,5.29-3.27l10.45-20.81h29.36l9.86,19.5a5.94,5.94,0,0,0,8,2.62,6,6,0,0,0,2.62-8Zm-43.85-26,8.67-17.24,8.74,17.24Z"/><path d="M289,162A84.16,84.16,0,0,0,168.69,99.24C164,57,128.22,24,84.85,24a84.59,84.59,0,1,0,36.72,160.74,85.09,85.09,0,0,0,62.8,72.82h.06a85.09,85.09,0,0,0,95-41.55A85,85,0,0,0,289,162ZM84.85,181.34a72.71,72.71,0,1,1,72.49-72.71A72.89,72.89,0,0,1,84.85,181.34Zm184.25,29A72.39,72.39,0,0,1,133,178.07a84.73,84.73,0,0,0,36.12-65.57,72.48,72.48,0,0,1,99.94,97.84Z"/><path d="M114.79,253.09V253a6.26,6.26,0,0,0-.17-.66v-.06a2.44,2.44,0,0,0-.24-.59c0-.06-.06-.12-.12-.18s-.18-.3-.24-.42-.06-.11-.12-.17l-.35-.54a3.34,3.34,0,0,0-.48-.53l-.12-.12c-.12-.12-.29-.24-.41-.36s-.12-.06-.18-.12-.3-.18-.42-.3-.12,0-.18-.11a2.53,2.53,0,0,0-.59-.3L80.81,236.32a5.93,5.93,0,0,0-4.46,11l20.32,8.2a40.16,40.16,0,0,1-36.36.89h-.06a41.31,41.31,0,0,1-23.77-38.58,5.94,5.94,0,1,0-11.88-.23,53.09,53.09,0,0,0,30.6,49.63,51.89,51.89,0,0,0,22.34,5.06,52.67,52.67,0,0,0,19.07-3.63l-5.4,13.2a5.91,5.91,0,0,0,3.26,7.73,6.09,6.09,0,0,0,7.79-3.27l12.24-30c0-.06.06-.12.06-.18a.11.11,0,0,1,0-.18,1.78,1.78,0,0,0,.11-.48.2.2,0,0,1,.06-.17c.06-.24.06-.48.12-.72v-.83c0-.18-.06-.36-.06-.53Z"/><path d="M175.58,37v.06c.06.24.12.48.18.66v.06a2.62,2.62,0,0,0,.24.59c0,.06.06.12.11.18s.18.29.24.41.06.12.12.18l.36.54a4.37,4.37,0,0,0,.47.53l.12.12c.12.12.3.24.42.36s.12.06.18.12.29.17.41.29.12.06.18.12a3,3,0,0,0,.59.3l30.37,12.24a5.93,5.93,0,1,0,4.45-11L193.7,34.56a40.21,40.21,0,0,1,36.37-.89h.06a41.32,41.32,0,0,1,23.76,38.58,5.93,5.93,0,0,0,5.83,6.07h.11a6,6,0,0,0,5.95-5.83,53.16,53.16,0,0,0-30.66-49.7h0a52,52,0,0,0-41.36-1.42l5.41-13.2a5.93,5.93,0,1,0-11-4.46l-12.24,30c0,.06-.06.12-.06.18s-.06.18-.06.24a1.8,1.8,0,0,0-.12.47.22.22,0,0,1-.06.18c-.06.24-.06.48-.12.72v.83c0,.18.06.35.06.53Z"/></g></g></svg>