<svg xmlns="http://www.w3.org/2000/svg" viewBox="0 0 290 227.54"><title>Asset 1</title><g id="Layer_2" data-name="Layer 2"><g id="Layer_1-2" data-name="Layer 1"><path d="M285.22,63.9H271.88a4.78,4.78,0,1,0,0,9.56h8.56V218h-206v-8a4.78,4.78,0,0,0-9.56,0v12.83a4.78,4.78,0,0,0,4.78,4.78H285.22a4.78,4.78,0,0,0,4.78-4.78V68.68A4.78,4.78,0,0,0,285.22,63.9Z"/><path d="M257.54,190.81V36.73A4.78,4.78,0,0,0,252.76,32H239.42a4.78,4.78,0,0,0,0,9.56H248V186H42V178a4.78,4.78,0,1,0-9.56,0v12.83a4.78,4.78,0,0,0,4.78,4.78H252.76A4.78,4.78,0,0,0,257.54,190.81Z"/><path d="M225.08,158.86V4.78A4.78,4.78,0,0,0,220.3,0H4.78A4.78,4.78,0,0,0,0,4.78V158.86a4.78,4.78,0,0,0,4.78,4.78H220.3A4.78,4.78,0,0,0,225.08,158.86Zm-9.56-4.78H9.56V9.56h206Z"/></g></g></svg>