<svg xmlns="http://www.w3.org/2000/svg" viewBox="0 0 283.45 283.13"><title>Asset 5</title><g id="Layer_2" data-name="Layer 2"><g id="Layer_1-2" data-name="Layer 1"><path d="M141.71,281.63c-32.27,0-61.64-10.3-87.39-30.65a131.75,131.75,0,0,1-23.54-24c-5.26,5.43-10.7,10.81-16,16l-3.91,3.88c-.08.08-.15.17-.23.26a7,7,0,0,1-5,2.71l-4.09.34V137.85l111.8,0,.26,3.49a6,6,0,0,1-2.6,5.35l-.22.18c-7.76,7.84-14.27,14.38-21.1,21.09,9.62,17.48,23.24,27.6,41.64,31,18.75,3.4,35.55-1.54,49.93-14.68,1.71-1.56,5.14-3.59,9,.29,17.78,17.85,33.82,33.89,49.06,49a5.41,5.41,0,0,1,0,8.54,138.58,138.58,0,0,1-91.08,39.37Q145,281.63,141.71,281.63ZM31,218.44h.34c2.66.18,4.22,2.28,5,3.29A123.85,123.85,0,0,0,59,245.05c26,20.58,56,30.3,89,28.89a130.94,130.94,0,0,0,85-36.11c-14.72-14.65-30.22-30.14-47.32-47.3-16,14.29-34.74,19.61-55.59,15.82-20.57-3.73-36.39-15.49-47-34.95-1.75-3.19-1.28-6.13,1.38-8.74,5.68-5.57,11.13-11,17.29-17.24l-92.52,0v92.54l.34-.33C15,232.2,20.62,226.61,26,221,26.72,220.28,28.49,218.44,31,218.44Z"/><path d="M141.71,283.13h0c-32.61,0-62.32-10.42-88.32-31a132.89,132.89,0,0,1-22.75-22.91c-4.88,5-9.89,10-14.75,14.79L12,247.91l-.09.11a8.63,8.63,0,0,1-6.05,3.3l-5.71.48V136.35l114.69,0,.37,4.88a7.53,7.53,0,0,1-3.16,6.63l-.14.11c-7.42,7.49-13.7,13.82-20.25,20.26,9.35,16.45,22.46,26,40,29.2,18.27,3.32,34.64-1.5,48.66-14.31,3.52-3.22,7.66-3.09,11.08.34,17.65,17.72,33.69,33.76,49,49a7.65,7.65,0,0,1,2.53,5.37,7.57,7.57,0,0,1-2.55,5.31A139.95,139.95,0,0,1,148.38,283c-2.24.1-4.48.15-6.67.15ZM30.92,224.65l1.06,1.4A130,130,0,0,0,55.25,249.8c25.46,20.12,54.54,30.33,86.46,30.33h0c2.14,0,4.34-.05,6.54-.14a137,137,0,0,0,90.09-38.94,4.65,4.65,0,0,0,1.64-3.18,4.75,4.75,0,0,0-1.64-3.23c-15.36-15.28-31.41-31.32-49.07-49-.84-.85-3.42-3.44-6.93-.23-14.75,13.47-32,18.54-51.21,15-18.87-3.43-32.84-13.8-42.69-31.7l-.55-1,.82-.79c6.83-6.71,13.32-13.24,21.08-21.07l.3-.26a4.6,4.6,0,0,0,2.1-4.11l-.16-2.1-108.91,0V248.53l2.46-.2a5.58,5.58,0,0,0,4-2.2,3.94,3.94,0,0,1,.3-.34l3.91-3.88c5.27-5.21,10.7-10.59,15.94-16Zm110.83,50.92c-30.9,0-59-9.85-83.67-29.34a125,125,0,0,1-23-23.6c-.67-.89-1.9-2.55-3.87-2.68H31c-1.87,0-3.28,1.47-3.89,2.09-5.43,5.64-11.08,11.23-16.55,16.64l-2.89,2.88V143.9l97.62,0-2.54,2.55c-5.42,5.47-11.26,11.34-17.3,17.26-2.18,2.14-2.54,4.35-1.11,7,10.41,19,25.88,30.55,46,34.2,20.38,3.7,38.66-1.51,54.34-15.47l1.06-.95,1,1c17.08,17.14,32.55,32.62,47.31,47.29l1.09,1.09L234,238.91a132.44,132.44,0,0,1-85.95,36.53Q144.89,275.57,141.75,275.57ZM31,216.94l.44,0c3.35.21,5.26,2.79,6.08,3.88a121.8,121.8,0,0,0,22.42,23c25.73,20.34,55.33,30,88,28.56a129.46,129.46,0,0,0,82.88-34.64c-14.15-14.07-29-28.89-45.24-45.22-16.16,13.91-34.93,19-55.79,15.25C108.75,204,92.57,192,81.7,172.12c-2.07-3.8-1.5-7.44,1.65-10.53,5.09-5,10.05-10,14.74-14.67l-87.42,0v87.45c4.75-4.71,9.61-9.55,14.28-14.4C25.75,219.13,27.85,216.94,31,216.94Z"/><path d="M83.12,145.42l-81.59,0,.09-3.86a145.31,145.31,0,0,1,8.74-47.95A139.91,139.91,0,0,1,56.58,30.7c-3.76-3.7-7.52-7.47-11.17-11.12q-4.2-4.2-8.43-8.41a6.65,6.65,0,0,0-1.06-.75c-.28-.18-.54-.34-.76-.5l-2.27-1.6.85-2.64c.82-2.53,2.66-3.92,5.06-3.8,10.41,0,21-.11,31.22-.18,23.54-.17,47.89-.34,71.84,0l3.73.05V114.79L141,113.72a7.24,7.24,0,0,1-4-2.57l-.24-.26-2.33-2.32c-6.19-6.15-12.58-12.5-18.81-18.84C97.8,99.22,87.46,113.7,84,134a34.08,34.08,0,0,0-.36,4.53c0,1.13-.08,2.29-.19,3.48ZM9.3,137.85l66.8,0a39.22,39.22,0,0,1,.44-5.16c3.86-22.54,15.91-39.29,35.82-49.81a6.45,6.45,0,0,1,8.4,1.3c5.7,5.8,11.56,11.64,17.27,17.33V9.19c-22.67-.26-45.67-.1-68,.06-7.92.06-16.06.12-24.16.16l4.84,4.83c4.1,4.1,8.33,8.34,12.53,12.46a5.94,5.94,0,0,1,2.13,4.56,6,6,0,0,1-2.73,4.28A132.5,132.5,0,0,0,17.45,96.21,135.9,135.9,0,0,0,9.3,137.85Z"/><path d="M84.48,146.92,0,146.9l.12-5.39A146.63,146.63,0,0,1,9,93.07a141.19,141.19,0,0,1,45.35-62.5c-3.35-3.32-6.7-6.67-10-9.93L44,20.32c-2.7-2.69-5.39-5.39-8.1-8.08a7.45,7.45,0,0,0-.81-.55c-.31-.19-.59-.37-.83-.54L31.13,8.91l1.18-3.69c1-3.18,3.47-5,6.57-4.83C49.2.35,59.78.27,70,.2c23.53-.17,47.86-.34,71.87,0l5.2.07V116.67l-6.46-1.49a8.72,8.72,0,0,1-4.77-3l-.17-.19-2.33-2.32c-5.94-5.9-12-12-18-18-16.77,9.27-26.54,23.24-29.86,42.65a34.13,34.13,0,0,0-.34,4.34c0,1.14-.08,2.32-.2,3.56Zm-81.41-3,78.68,0,.19-2.07c.11-1.15.15-2.29.19-3.39a36.09,36.09,0,0,1,.38-4.73C86.06,113,96.66,98.13,114.9,88.4l1-.53.78.8c6.21,6.33,12.6,12.68,18.77,18.81l2.36,2.34a3.58,3.58,0,0,1,.26.29,5.93,5.93,0,0,0,3.24,2.15l2.78.64V3.22l-2.24,0c-24-.33-48.3-.16-71.81,0-10.23.07-20.82.15-31.22.18a3.5,3.5,0,0,0-3.64,2.76l-.51,1.59L36,8.7c.2.14.44.29.7.45a8,8,0,0,1,1.32,1q4.07,4,8.11,8.09l.32.32c3.65,3.65,7.41,7.41,11.16,11.11l1.22,1.21L57.5,31.89A138.41,138.41,0,0,0,11.77,94.11a144,144,0,0,0-8.65,47.47Zm74.47-4.53-69.81,0,.07-1.57A137.34,137.34,0,0,1,16,95.69,134.17,134.17,0,0,1,61.77,34.34a4.58,4.58,0,0,0,2.14-3.18,4.52,4.52,0,0,0-1.68-3.39c-4.18-4.11-8.4-8.32-12.48-12.4L42.3,7.92h3.6c7.74,0,15.51-.1,23.1-.15h1.06c22.25-.16,45.26-.33,68-.06l1.48,0v97.42L137,102.59c-5.87-5.84-11.61-11.55-17.29-17.34a5,5,0,0,0-6.63-1C93.58,94.51,81.79,110.91,78,133a38,38,0,0,0-.42,5Zm-66.67-3,63.79,0a33.72,33.72,0,0,1,.41-3.91c3.93-23,16.24-40.14,36.59-50.89,3.77-2,7.19-1.46,10.17,1.58,4.84,4.93,9.73,9.82,14.7,14.77V10.67c-22.22-.24-44.69-.08-66.44.08H69l-19.5.13,2.29,2.29c4.14,4.14,8.35,8.35,12.52,12.45a7.36,7.36,0,0,1,2.57,5.73,7.42,7.42,0,0,1-3.32,5.38,131.11,131.11,0,0,0-44.73,60A134,134,0,0,0,10.87,136.35Z"/><path d="M275.7,145.56h0c-26.21-.05-52.86-.05-78.64-.05H174.9c-.37,0-.73,0-1.26-.06l-.84-.05-8.1-.48,6.41-6.77c.53-.56,1-1,1.42-1.47l4.82-4.84c5.37-5.38,10.92-10.94,16.43-16.37C183.27,96.34,167.93,86,146.92,83.85l-1.33-.13V110H138V1.69h3.9c45.35.63,82.64,19.07,110.86,54.8,5-5.14,10.22-10.29,15.22-15.28l4.73-4.71c.49-.5,1-1,1.53-1.45l3.42-3.18,2.57,2.76A6.59,6.59,0,0,1,281.91,40c0,.12,0,.25,0,.37q0,17,0,34,0,32.37.05,64.74a6.48,6.48,0,0,1-1.63,4.82A6.31,6.31,0,0,1,275.7,145.56ZM205.61,138c22.66,0,45.88,0,68.78.05q0-31.81,0-63.64,0-14.4,0-28.8l-1,1c-5.32,5.3-10.82,10.78-16.17,16.23-.93,1-2.49,2.54-4.86,2.39a6.3,6.3,0,0,1-4.55-2.85c-26.07-33.62-60.43-51.43-102.18-53V76.15c.65,0,1.35.12,2.09.19,23.5,2.4,41.32,14.48,53,35.92a6.52,6.52,0,0,1-1.41,8.44c-5.54,5.45-11.13,11-16.53,16.47l-.79.78h23.7Z"/><path d="M275.7,147.06h-.09C249.43,147,222.79,147,197,147H174.9c-.4,0-.79,0-1.37-.06-.22,0-.49,0-.82-.05l-11.31-.68,8.62-9.1c.54-.57,1-1,1.45-1.5l5.07-5.09c5-5,10.21-10.23,15.37-15.32-10.18-17.94-24.86-27.7-44.82-29.82v26.16H136.54V.19h5.4c45.27.63,82.59,18.81,111,54,4.7-4.76,9.44-9.49,14-14.08l4.72-4.72c.51-.5,1-1,1.57-1.48l4.51-4.2,3.6,3.86a8.09,8.09,0,0,1,2.05,6.48c0,.15,0,.21,0,.27q0,17,0,34,0,32.37.05,64.74a7.93,7.93,0,0,1-2.07,5.88A7.84,7.84,0,0,1,275.7,147.06ZM207.37,144c22.52,0,45.56,0,68.3.06l0,1.5v-1.5a4.81,4.81,0,0,0,3.57-1.2,5.08,5.08,0,0,0,1.19-3.76q-.06-32.37-.05-64.74,0-17,0-34c0-.14,0-.28,0-.42a5.2,5.2,0,0,0-1.24-4.29L277.61,34l-2.32,2.16c-.51.47-1,.93-1.49,1.41l-4.73,4.71c-5,5-10.14,10.11-15.21,15.27l-1.2,1.21-1-1.33C223.69,22.06,186.78,3.82,141.9,3.19h-2.37V108.54h4.55V83.71l0-1.62,1.61.14,1.26.12c21.63,2.21,37.34,12.8,48.12,32.39l.54,1-.81.79c-5.42,5.34-10.88,10.82-16.17,16.11l-5.07,5.09c-.44.44-.87.89-1.38,1.44L168,143.6l4.88.29.86.06c.48,0,.81.05,1.15.05h32.47Zm68.52-4.5h-1.5c-23,0-46.57-.05-68.78-.05H178.3l3.43-3.44c5.37-5.38,10.93-11,16.45-16.38,1.44-1.42,2.87-3.46,1.14-6.65-11.39-21-28.81-32.8-51.79-35.15-.73-.07-1.41-.14-2.05-.18l-1.4-.1V7.78l1.56.06c42.21,1.57,77,19.6,103.32,53.57a4.9,4.9,0,0,0,3.44,2.28c1.69.1,2.86-1.09,3.71-1.95,5.35-5.45,10.86-10.94,16.18-16.25L275.84,42V74.36q0,31.81,0,63.64Zm-90.36-3.05h20.08c21.72,0,44.78,0,67.28.05q0-31.06,0-62.14V49.18C268,54,263.07,58.93,258.25,63.84c-1,1.06-3,3-6,2.84a7.77,7.77,0,0,1-5.63-3.43c-25.46-32.82-58.92-50.43-99.51-52.35V74.77l.76.08c24,2.45,42.23,14.8,54.12,36.7,1.38,2.55,2.21,6.39-1.68,10.22C195.35,126.62,190.37,131.6,185.53,136.45Z"/></g></g></svg>