<?xml version="1.0" encoding="iso-8859-1"?>
<!-- Generator: Adobe Illustrator 19.0.0, SVG Export Plug-In . SVG Version: 6.00 Build 0)  -->
<svg version="1.1" id="Capa_1" xmlns="http://www.w3.org/2000/svg" xmlns:xlink="http://www.w3.org/1999/xlink" x="0px" y="0px"
	 viewBox="0 0 512 512" style="enable-background:new 0 0 512 512;" xml:space="preserve">
<g>
	<g>
		<path d="M467,31H105c-24.813,0-45,20.187-45,45v75H45c-24.813,0-45,20.187-45,45v240c0,24.813,20.187,45,45,45h362
			c24.813,0,45-20.187,45-45v-75h15c24.813,0,45-20.187,45-45V76C512,51.187,491.813,31,467,31z M422,436c0,8.271-6.729,15-15,15H45
			c-8.271,0-15-6.729-15-15V301h392V436z M422,271H30v-30h392V271z M422,211H30v-15c0-8.271,6.729-15,15-15h362
			c8.271,0,15,6.729,15,15V211z M482,316c0,8.271-6.729,15-15,15h-15V196c0-24.813-20.187-45-45-45H90V76c0-8.271,6.729-15,15-15
			h362c8.271,0,15,6.729,15,15V316z"/>
	</g>
</g>
<g>
	<g>
		<path d="M165,331c-11.517,0-22.032,4.353-30,11.495C127.032,335.353,116.517,331,105,331c-24.813,0-45,20.187-45,45
			s20.187,45,45,45c11.517,0,22.032-4.353,30-11.495c7.968,7.141,18.483,11.495,30,11.495c24.813,0,45-20.187,45-45
			S189.813,331,165,331z M105,391c-8.271,0-15-6.729-15-15s6.729-15,15-15s15,6.729,15,15S113.271,391,105,391z M165,391
			c-8.271,0-15-6.729-15-15s6.729-15,15-15s15,6.729,15,15S173.271,391,165,391z"/>
	</g>
</g>
<g>
	<g>
		<path d="M286,361h-30c-8.284,0-15,6.716-15,15s6.716,15,15,15h30c8.284,0,15-6.716,15-15S294.284,361,286,361z"/>
	</g>
</g>
<g>
	<g>
		<path d="M377,361h-30c-8.284,0-15,6.716-15,15s6.716,15,15,15h30c8.284,0,15-6.716,15-15S385.284,361,377,361z"/>
	</g>
</g>
<g>
</g>
<g>
</g>
<g>
</g>
<g>
</g>
<g>
</g>
<g>
</g>
<g>
</g>
<g>
</g>
<g>
</g>
<g>
</g>
<g>
</g>
<g>
</g>
<g>
</g>
<g>
</g>
<g>
</g>
</svg>
