<?xml version="1.0" encoding="iso-8859-1"?>
<!-- Generator: Adobe Illustrator 19.0.0, SVG Export Plug-In . SVG Version: 6.00 Build 0)  -->
<svg version="1.1" id="Layer_1" xmlns="http://www.w3.org/2000/svg" xmlns:xlink="http://www.w3.org/1999/xlink" x="0px" y="0px"
	 viewBox="0 0 512 512" style="enable-background:new 0 0 512 512;" xml:space="preserve">
<g>
	<g>
		<path d="M463.315,48.684c-64.91-64.912-170.529-64.912-235.439,0c-42.666,42.666-58.166,104.143-43.068,160.789L4.878,389.403
			c-3.122,3.122-4.877,7.356-4.877,11.771v94.177c0,9.194,7.454,16.648,16.648,16.648h94.177c4.415,0,8.649-1.755,11.771-4.877
			l23.544-23.544c3.122-3.122,4.876-7.356,4.876-11.771v-30.44h30.44c4.415,0,8.649-1.754,11.771-4.876l23.545-23.545
			c3.122-3.122,4.876-7.356,4.876-11.771v-30.44h30.44c4.415,0,8.649-1.755,11.771-4.877l38.664-38.664
			c56.652,15.1,118.123-0.403,160.789-43.068C528.227,219.216,528.227,113.597,463.315,48.684z M439.774,260.581
			c-35.956,35.956-88.336,48.228-136.702,32.026c-5.988-2.007-12.595-0.452-17.06,4.013l-40.816,40.816h-40.192
			c-9.194,0-16.648,7.454-16.648,16.648v40.192l-13.793,13.793h-40.192c-9.194,0-16.648,7.454-16.648,16.648v40.192l-13.791,13.793
			H33.298V408.07l182.081-182.081c4.465-4.465,6.02-11.072,4.014-17.06c-16.201-48.366-3.929-100.746,32.026-136.702
			c51.93-51.928,136.424-51.929,188.355,0C491.702,124.157,491.702,208.653,439.774,260.581z"/>
	</g>
</g>
<g>
	<g>
		<path d="M416.229,95.773c-25.965-25.966-68.213-25.966-94.177,0c-25.965,25.965-25.965,68.211,0,94.177
			c25.964,25.965,68.211,25.966,94.177,0C442.194,163.986,442.194,121.739,416.229,95.773z M392.685,166.405
			c-12.982,12.981-34.106,12.981-47.089,0c-12.982-12.982-12.982-34.106,0-47.089c12.982-12.981,34.106-12.982,47.089,0
			C405.667,132.299,405.667,153.423,392.685,166.405z"/>
	</g>
</g>
<g>
</g>
<g>
</g>
<g>
</g>
<g>
</g>
<g>
</g>
<g>
</g>
<g>
</g>
<g>
</g>
<g>
</g>
<g>
</g>
<g>
</g>
<g>
</g>
<g>
</g>
<g>
</g>
<g>
</g>
</svg>
