<?xml version="1.0" encoding="iso-8859-1"?>
<!-- Generator: Adobe Illustrator 19.0.0, SVG Export Plug-In . SVG Version: 6.00 Build 0)  -->
<svg version="1.1" id="Capa_1" xmlns="http://www.w3.org/2000/svg" xmlns:xlink="http://www.w3.org/1999/xlink" x="0px" y="0px"
	 viewBox="0 0 480.004 480.004" style="enable-background:new 0 0 480.004 480.004;" xml:space="preserve">
<g>
	<g>
		<path d="M328,32.002h-40v-24c0-4.418-3.582-8-8-8H152c-4.418,0-8,3.582-8,8v216c0,4.418,3.582,8,8,8h40v24c0,4.418,3.582,8,8,8
			h128c4.418,0,8-3.582,8-8v-216C336,35.584,332.418,32.002,328,32.002z M272,16.002V30.53c-6.775-2.42-12.108-7.753-14.528-14.528
			H272z M160,16.002h14.528c-2.42,6.775-7.753,12.108-14.528,14.528V16.002z M160,216.002v-14.528
			c6.776,2.42,12.108,7.753,14.528,14.528H160z M191.2,216.002c-3.234-15.699-15.501-27.966-31.2-31.2v-137.6
			c15.699-3.234,27.966-15.501,31.2-31.2h49.6c3.234,15.699,15.501,27.966,31.2,31.2v137.6c-15.699,3.234-27.966,15.501-31.2,31.2
			H191.2z M272,201.474v14.528h-14.528C259.892,209.227,265.225,203.894,272,201.474z M320,248.002H208v-16h72c4.418,0,8-3.582,8-8
			v-176h32V248.002z"/>
	</g>
</g>
<g>
	<g>
		<path d="M216,80.002c-17.673,0-32,14.327-32,32s14.327,32,32,32s32-14.327,32-32S233.673,80.002,216,80.002z M216,128.002
			c-8.837,0-16-7.163-16-16s7.163-16,16-16s16,7.163,16,16S224.837,128.002,216,128.002z"/>
	</g>
</g>
<g>
	<g>
		<rect x="112" y="0.002" width="16" height="64"/>
	</g>
</g>
<g>
	<g>
		<rect x="80" y="0.002" width="16" height="32"/>
	</g>
</g>
<g>
	<g>
		<rect x="352" y="16.002" width="16" height="64"/>
	</g>
</g>
<g>
	<g>
		<rect x="384" y="0.002" width="16" height="32"/>
	</g>
</g>
<g>
	<g>
		<path d="M469.38,290.63c-6.805-6.806-16.036-10.629-25.66-10.628h-2.12c-7.999,0.013-15.771,2.655-22.12,7.52l-77.64,59.72
			c-11.276,8.661-24.491,14.446-38.504,16.856l-101.84,17.44c-4.584,0.619-8.802-2.596-9.421-7.181
			c-0.05-0.37-0.075-0.742-0.075-1.115c0.015-3.946,2.769-7.352,6.624-8.192l78.064-16.736c18.654-3.979,30.55-22.327,26.571-40.981
			c-3.4-15.936-17.476-27.328-33.771-27.331H209.24c-17.418,0.01-34.77,2.159-51.664,6.4L96,301.762v-13.76c0-4.418-3.582-8-8-8H8
			c-4.418,0-8,3.582-8,8v184c0,4.418,3.582,8,8,8h278.36c13.285-0.005,26.137-4.728,36.264-13.328l146.752-124.736
			C483.545,327.771,483.547,304.8,469.38,290.63z M80,464.002H16v-168h64V464.002z M458.536,330.186L312.264,454.49
			c-7.236,6.138-16.416,9.508-25.904,9.512H96V318.25l65.464-16.368c15.625-3.908,31.67-5.882,47.776-5.88h60.216
			c10.242,0.019,18.529,8.336,18.51,18.578c-0.016,8.724-6.11,16.257-14.638,18.094l-78.064,16.736
			c-13.153,2.868-21.491,15.856-18.623,29.01c2.724,12.49,14.634,20.754,27.287,18.934l102.12-17.488
			c16.577-2.849,32.211-9.692,45.552-19.936l77.64-59.72c3.547-2.72,7.89-4.199,12.36-4.208h2.104
			c11.199,0.009,20.278,9.081,20.296,20.28C464.043,321.449,462.085,326.431,458.536,330.186z"/>
	</g>
</g>
<g>
</g>
<g>
</g>
<g>
</g>
<g>
</g>
<g>
</g>
<g>
</g>
<g>
</g>
<g>
</g>
<g>
</g>
<g>
</g>
<g>
</g>
<g>
</g>
<g>
</g>
<g>
</g>
<g>
</g>
</svg>
