<?xml version="1.0" encoding="iso-8859-1"?>
<!-- Generator: Adobe Illustrator 19.0.0, SVG Export Plug-In . SVG Version: 6.00 Build 0)  -->
<svg version="1.1" id="Capa_1" xmlns="http://www.w3.org/2000/svg" xmlns:xlink="http://www.w3.org/1999/xlink" x="0px" y="0px"
	 viewBox="0 0 512.002 512.002" style="enable-background:new 0 0 512.002 512.002;" xml:space="preserve">
<g>
	<g>
		<g>
			<path d="M488.001,16.002h-128v16h128c4.418,0,8,3.582,8,8v256h-24v-232c0-4.418-3.582-8-8-8h-40v16h32v224h-88v-24h40
				c4.418,0,8-3.582,8-8v-17.371c9.32-3.295,16-12.18,16-22.629c0-13.255-10.745-24-24-24s-24,10.745-24,24
				c0,10.449,6.68,19.334,16,22.629v9.371h-40c-4.418,0-8,3.582-8,8v32h-296v-96h40v40c0,4.418,3.582,8,8,8h25.371
				c3.295,9.32,12.18,16,22.629,16c13.255,0,24-10.745,24-24s-10.745-24-24-24c-10.449,0-19.334,6.68-22.629,16h-17.371v-40
				c0-4.418-3.582-8-8-8h-48v-112h32v-16h-40c-4.418,0-8,3.582-8,8v232h-24v-256c0-4.418,3.582-8,8-8h128v-16h-128
				c-13.255,0-24,10.745-24,24v352c0,4.418,3.582,8,8,8h182.24l-12.8,64h-17.44c-4.418,0-8,3.582-8,8v24h-16v16h240v-16h-16v-24
				c0-4.418-3.582-8-8-8h-17.453l-12.8-64h182.253c4.418,0,8-3.582,8-8v-352C512.001,26.747,501.256,16.002,488.001,16.002z
				 M408.001,216.002c4.418,0,8,3.582,8,8s-3.582,8-8,8s-8-3.582-8-8S403.583,216.002,408.001,216.002z M152.001,232.002
				c4.418,0,8,3.582,8,8s-3.582,8-8,8s-8-3.582-8-8S147.583,232.002,152.001,232.002z M344.001,496.002h-176v-16h16h144h16V496.002z
				 M318.241,464.002h-124.48l12.788-64h98.892L318.241,464.002z M16.001,384.002v-72h480v72H16.001z"/>
			<path d="M256.001,320.002c-13.255,0-24,10.745-24,24s10.745,24,24,24s24-10.745,24-24S269.256,320.002,256.001,320.002z
				 M256.001,352.002c-4.418,0-8-3.582-8-8s3.582-8,8-8s8,3.582,8,8S260.419,352.002,256.001,352.002z"/>
			<path d="M112.756,68.599c-1.88,3.999-0.162,8.764,3.837,10.643l35.408,16.663v72.097c-0.017,3.047,1.699,5.838,4.424,7.2
				l96.064,48c1.109,0.559,2.334,0.849,3.576,0.848c1.145,0,2.278-0.245,3.32-0.72l87.936-40.048c2.851-1.301,4.681-4.146,4.68-7.28
				V99.67l32-15.059v27.392h-8c-4.418,0-8,3.582-8,8v48c0,4.418,3.582,8,8,8h32c4.418,0,8-3.582,8-8v-48c0-4.418-3.582-8-8-8h-8
				V72.325c0.001-0.017-0.001-0.033,0-0.05v-0.272c0-0.021-0.003-0.041-0.003-0.063c-0.002-0.229-0.013-0.457-0.035-0.684
				c-0.005-0.054-0.011-0.107-0.017-0.16c-0.023-0.2-0.053-0.398-0.091-0.595c-0.014-0.075-0.03-0.15-0.046-0.224
				c-0.038-0.173-0.082-0.344-0.132-0.514c-0.025-0.087-0.052-0.173-0.08-0.259c-0.052-0.158-0.11-0.314-0.171-0.468
				c-0.034-0.086-0.069-0.172-0.107-0.256c-0.068-0.155-0.143-0.308-0.221-0.459c-0.038-0.074-0.076-0.147-0.117-0.22
				c-0.089-0.159-0.184-0.314-0.284-0.468c-0.038-0.057-0.075-0.115-0.114-0.172c-0.11-0.16-0.227-0.315-0.35-0.468
				c-0.036-0.045-0.072-0.09-0.109-0.134c-0.128-0.153-0.263-0.3-0.404-0.444c-0.04-0.041-0.08-0.082-0.121-0.122
				c-0.138-0.135-0.281-0.265-0.429-0.39c-0.055-0.047-0.11-0.092-0.166-0.138c-0.136-0.109-0.275-0.213-0.419-0.314
				c-0.082-0.057-0.164-0.112-0.248-0.166c-0.125-0.08-0.251-0.158-0.382-0.232c-0.114-0.065-0.229-0.125-0.346-0.185
				c-0.068-0.034-0.131-0.074-0.201-0.107l-136-64c-2.158-1.016-4.658-1.016-6.816,0l-136,64
				C114.906,65.555,113.549,66.912,112.756,68.599z M400.001,160.002h-16v-32h16V160.002z M336.001,170.85l-79.776,36.352
				l-88.224-44.144v-59.624l80,37.647v42.921h16v-42.921l72-33.882V170.85z M256.001,16.842l100.209,47.16H256.001v-8h-16v32h16v-8
				h100.221l-100.221,47.2l-117.208-55.2L256.001,16.842z"/>
		</g>
	</g>
</g>
<g>
</g>
<g>
</g>
<g>
</g>
<g>
</g>
<g>
</g>
<g>
</g>
<g>
</g>
<g>
</g>
<g>
</g>
<g>
</g>
<g>
</g>
<g>
</g>
<g>
</g>
<g>
</g>
<g>
</g>
</svg>
