<?xml version="1.0" encoding="iso-8859-1"?>
<!-- Generator: Adobe Illustrator 16.0.0, SVG Export Plug-In . SVG Version: 6.00 Build 0)  -->
<!DOCTYPE svg PUBLIC "-//W3C//DTD SVG 1.1//EN" "http://www.w3.org/Graphics/SVG/1.1/DTD/svg11.dtd">
<svg version="1.1" id="Capa_1" xmlns="http://www.w3.org/2000/svg" xmlns:xlink="http://www.w3.org/1999/xlink" x="0px" y="0px"
	 width="612px" height="612px" viewBox="0 0 612 612" style="enable-background:new 0 0 612 612;" xml:space="preserve">
<g>
	<g>
	</g>
	<g>
	</g>
	<g>
	</g>
	<g>
	</g>
	<g>
	</g>
	<g>
	</g>
	<g>
	</g>
	<g>
	</g>
	<g>
	</g>
	<g>
	</g>
	<g>
	</g>
	<g>
	</g>
	<g>
	</g>
	<g>
	</g>
	<g>
	</g>
</g>
<path d="M554.307,146.548c-1.96-31.153-12.153-57.806-30.518-79.606c-34.976-41.509-97.85-63.379-181.828-63.379
	C309.296,3.562,140.407,0,138.708,0c-0.117,0-0.214,0-0.32,0c-6.795,0-12.717,4.562-14.212,11.231L10.92,516.528
	c-0.971,4.319,0.078,8.702,2.844,12.157c2.757,3.446,6.95,5.314,11.367,5.314h75.101l-13.702,60.036
	c-0.99,4.319,0.039,8.933,2.806,12.399c2.757,3.475,6.95,5.564,11.387,5.564h189.41c6.97,0,12.979-4.96,14.289-11.823
	l23.745-123.497l88.706-0.729c0.437-0.01,0.873-0.028,1.319-0.077c1.495-0.146,150.406-16.9,180.081-190.051
	C611.057,211.198,582.779,169.264,554.307,146.548z M149.988,29.129c39.548,0.854,163.735,3.637,191.973,3.637
	c74.038,0,130.709,19.132,159.56,53.37c21.512,25.53,28.607,61.213,21.095,105.052c-26.793,156.356-152.134,175.297-163.443,176.598
	L253.391,369c-0.029,0-0.068,0-0.097,0c-6.96,0-12.94,2.912-14.289,9.746L213.794,505H43.323L149.988,29.129z M569.569,280.892
	c-25.22,147.173-143.252,164.666-153.687,165.927l-99.889,0.806c-6.932,0.059-12.863,5.08-14.174,11.895L278.096,583H118.992
	l11.113-49h95.668c6.96,0,12.94-4.78,14.28-11.614l25.2-128.114l94.53,0.695c0.476,0,0.98,0.008,1.466-0.031
	c1.583-0.155,158.735-16.95,190.07-199.788c0.52-3.028,0.971-6.016,1.369-8.98C570.628,209.802,576.315,241.532,569.569,280.892z"/>
<g>
</g>
<g>
</g>
<g>
</g>
<g>
</g>
<g>
</g>
<g>
</g>
<g>
</g>
<g>
</g>
<g>
</g>
<g>
</g>
<g>
</g>
<g>
</g>
<g>
</g>
<g>
</g>
<g>
</g>
</svg>
