<?xml version="1.0" encoding="iso-8859-1"?>
<!-- Generator: Adobe Illustrator 19.0.0, SVG Export Plug-In . SVG Version: 6.00 Build 0)  -->
<svg version="1.1" id="Layer_1" xmlns="http://www.w3.org/2000/svg" xmlns:xlink="http://www.w3.org/1999/xlink" x="0px" y="0px"
	 viewBox="0 0 512.001 512.001" style="enable-background:new 0 0 512.001 512.001;" xml:space="preserve">
<g>
	<g>
		<path d="M470.656,1.367c-3.156-1.823-7.044-1.823-10.199,0.001l-19.811,11.442c-56.385,32.566-126.458,28.342-178.52-10.766
			c-3.629-2.726-8.622-2.726-12.251,0C197.812,41.153,127.74,45.379,71.356,12.811L51.544,1.367
			C48.389-0.455,44.5-0.456,41.344,1.366c-3.157,1.822-5.101,5.189-5.101,8.834v187.831c0,44.406,10.237,89,29.605,128.962
			c19.367,39.96,48.029,75.625,82.886,103.138l100.946,79.677c1.853,1.462,4.087,2.193,6.319,2.193c2.234,0,4.467-0.731,6.32-2.193
			l100.946-79.677c34.857-27.513,63.519-63.178,82.886-103.138c19.368-39.961,29.605-84.555,29.605-128.962V10.201
			C475.757,6.556,473.813,3.189,470.656,1.367z M455.358,198.03c0,84.793-38.174,163.553-104.732,216.089L256,488.808l-94.626-74.69
			C94.815,361.583,56.642,282.823,56.642,198.03V27.869l4.511,2.605c28.425,16.419,59.934,24.531,91.336,24.53
			C188.795,55.003,224.953,44.157,256,22.763c57.901,39.898,133.558,43.113,194.848,7.711l4.51-2.605V198.03z"/>
	</g>
</g>
<g>
	<g>
		<path d="M408.978,93.576H103.022c-5.633,0-10.199,4.566-10.199,10.199v110.032c0,30.433,7.408,61.54,21.419,89.958
			c14.431,29.265,35.592,54.967,61.194,74.328l74.291,57.944c1.844,1.438,4.058,2.157,6.273,2.157c2.215,0,4.428-0.719,6.273-2.156
			l74.291-57.944c25.603-19.361,46.763-45.063,61.194-74.328c14.013-28.419,21.419-59.526,21.419-89.959V103.776
			C419.177,98.143,414.611,93.576,408.978,93.576z M398.78,213.808c0,56.569-28.576,113.302-74.577,148.06
			c-0.042,0.031-0.084,0.063-0.124,0.095L256,415.06l-68.078-53.098c-0.041-0.032-0.083-0.063-0.124-0.095
			c-46-34.758-74.577-91.491-74.577-148.06v-99.833H398.78V213.808z"/>
	</g>
</g>
<g>
	<g>
		<path d="M263.693,239.744V172.7c20.276,1.081,28.386,10.002,33.253,10.002c4.866,0,7.84-6.488,7.84-10.002
			c0-8.921-21.628-15.679-41.093-16.49v-7.84c0-2.703-3.243-5.136-6.217-5.136c-3.515,0-6.217,2.434-6.217,5.136v8.381
			c-23.519,1.622-49.202,12.436-49.202,46.498c0,34.604,25.411,42.714,49.202,51.095v78.669
			c-33.523-0.811-39.471-22.168-45.959-22.168c-4.055,0-8.11,5.677-8.11,10.002c0,9.732,20.005,28.926,54.068,29.196h0.001v9.733
			c0,2.703,2.703,5.136,6.217,5.136c2.973,0,6.217-2.434,6.217-5.136v-10.543c27.035-3.515,45.959-20.276,45.959-52.987
			C309.652,259.208,286.131,247.855,263.693,239.744z M251.798,235.689c-17.572-6.218-32.712-12.976-32.711-34.063
			c0-20.005,15.679-27.304,32.711-28.656V235.689z M262.881,332.471v-73.803c16.221,6.758,29.468,15.679,29.468,39.2
			C292.349,317.873,281.805,329.497,262.881,332.471z"/>
	</g>
</g>
<g>
	<g>
		<path d="M376.35,209.084c-5.633,0-10.199,4.566-10.199,10.199v4.08c0,5.633,4.566,10.199,10.199,10.199
			c5.633,0,10.199-4.566,10.199-10.199v-4.08C386.55,213.651,381.984,209.084,376.35,209.084z"/>
	</g>
</g>
<g>
	<g>
		<path d="M376.35,125.451c-5.633,0-10.199,4.566-10.199,10.199v50.996c0,5.633,4.566,10.199,10.199,10.199
			c5.633,0,10.199-4.566,10.199-10.199V135.65C386.55,130.017,381.984,125.451,376.35,125.451z"/>
	</g>
</g>
<g>
</g>
<g>
</g>
<g>
</g>
<g>
</g>
<g>
</g>
<g>
</g>
<g>
</g>
<g>
</g>
<g>
</g>
<g>
</g>
<g>
</g>
<g>
</g>
<g>
</g>
<g>
</g>
<g>
</g>
</svg>
