<svg xmlns="http://www.w3.org/2000/svg" viewBox="0 0 287.2 287.56"><title>Asset 2</title><g id="Layer_2" data-name="Layer 2"><g id="Layer_1-2" data-name="Layer 1"><g id="chart"><path d="M37.61,267.83l-4-4.68a137.23,137.23,0,0,1,0-179.83l4-4.67,94.66,94.59Zm.71-172.2a124.93,124.93,0,0,0,0,155.22L116,173.24Z"/><path d="M159.48,287.56c-26,0-51.62-8.86-74.06-25.61l-5.3-4,91.45-92.24V35.28l6.59,1a128.93,128.93,0,0,1,77.66,41.69,124.43,124.43,0,0,1,31.38,82.75,125.69,125.69,0,0,1-37.29,89.74A127.33,127.33,0,0,1,159.48,287.56Zm-61.75-31c19.08,12.77,40.3,19.48,61.75,19.48,64.08,0,116.21-51.75,116.21-115.36,0-54.87-38.56-100.93-92.61-111.9v121.7Z"/><path d="M149.34,158,36.14,44.78l4.93-4A178.05,178.05,0,0,1,143.23.38L149.34,0Zm-96-112.27,84.47,84.49V12.35A166.42,166.42,0,0,0,53.36,45.72Z"/></g></g></g></svg>