<svg xmlns="http://www.w3.org/2000/svg" viewBox="0 0 288 252.34"><title>Asset 7</title><g id="Layer_2" data-name="Layer 2"><g id="Layer_1-2" data-name="Layer 1"><path d="M205.64,252.34H83.46l-.57-3c-.41-2.13-1-5.05,1.06-7.13,1.31-1.35,3.24-1.82,5.73-1.41,4.27.71,6.77-1,8.93-6.24,3.46-8.32,7.06-18,7-29.11h-3.5q-11.34,0-22.68,0c-19.74,0-40.15-.08-60.21.17-6,.08-14.48-1-18.9-10.87L0,194.11V11.24l.36-.71C5.11,1.24,13.23,0,19.81,0h.13c84,.2,167.51.2,248.12,0h.14c6.61,0,14.74,1.23,19.45,10.55l.35.7V194.12l-.29.65c-4.48,9.91-13,10.93-18.91,10.87-19.79-.25-39.93-.21-59.4-.18l-20.74,0c-1.11,0-2.65,0-3.58.09a29.29,29.29,0,0,0,.45,3.12,174.68,174.68,0,0,0,7,26.34c2.2,6.31,5.35,6.37,8.41,5.5l4-1.13Zm-107.56-6.6h.47l.31-.53C98.61,245.4,98.35,245.57,98.08,245.74Zm11.25-5.6h72.29c-5.21-9.8-7.88-20.69-8.43-34.28h-55.5A79.67,79.67,0,0,1,109.33,240.14Zm70.32-39.95,0,1.07.11-.13a5.3,5.3,0,0,1,1-.94Zm-167.58-41v6.4c0,7.3,0,14.42,0,21.54,0,6.24.19,6.42,6.29,6.42H270c5.74,0,5.76-1.13,5.81-4.17.11-7.69.09-15.28.07-23.32q0-3.4,0-6.87ZM6.6,152.64h3.6A7.08,7.08,0,0,1,7.68,151a6.84,6.84,0,0,1-1.08-1.42ZM18.83,12c-6.37,0-6.75.37-6.75,6.65q0,16.1,0,32.21c0,30.31,0,61.66-.13,92.5,0,2.56.38,3,.39,3s.41.37,3,.41c69.85-.13,140.88-.12,209.56-.1h50.93c0-.37.05-.68.05-1V134.54c0-38.47,0-78.24,0-117.36,0-4.17,0-5.16-6.55-5.16Z"/><path d="M246.77,64.46H41.26v-3.3q0-3.49,0-7c0-8.46-.05-16.45.25-24.63.15-3.79,6.07-5.88,8.46-5.9,17.64-.15,35.57-.14,52.91-.13h12.52l29.51,0c30.13,0,61.29,0,91.93-.11,2.78,0,5.9.27,8,2.46s2.21,5.26,2.09,7.69c-.32,6.29-.26,12.53-.19,19.13,0,2.78.06,5.59.06,8.42Zm-193.18-12H234.3V35.94H53.59Z"/><path d="M181.91,134.71H129.58V70.65h52.33ZM141.6,123.06h28.73v-5.35c0-12.09,0-23.52-.11-35.11v0c-8.36-.14-16.9-.13-25.16-.12H141.6Zm32.56-45.81a7.63,7.63,0,0,1,1.16,1.18V77.25Z"/><path d="M246.24,134.79h-52.3v-64h52.3Zm-40.7-11.87h29.09v-5.56c0-11.79,0-22.94-.16-34.3a4.05,4.05,0,0,0-.82-.55c-5-.14-10-.13-14.91-.13-4,0-8.14,0-12.23-.07a6.21,6.21,0,0,0-1,.06,6.4,6.4,0,0,0-.06,1.1c.11,5.62.09,11.32.07,16.82q0,3.4,0,6.8Zm32.29-45.58a8.9,8.9,0,0,1,1.81,1.59V77.34Zm-37.3,0v.6l.29-.3a3,3,0,0,1,.32-.3Z"/><path d="M78.08,106c-9.44,0-19,0-28.49-.13a9.75,9.75,0,0,1-5.21-2.07c-.47-.31-.92-.6-1.29-.8l-5.26-2.73,5.1-3c.34-.2.75-.52,1.19-.85,1.35-1,3-2.28,5.19-2.3C64.8,93.89,80,93.9,96,93.91h15.65v12H78.08Z"/><rect x="41.7" y="70.73" width="69.96" height="11.33"/><path d="M111.63,129.15H43.06l-.85-2c-.5-1.2-1.83-4.4-.09-7s5.18-2.6,6.31-2.59c14.48.06,28.69,0,43.73,0h19.47Z"/><path d="M144,187.85a11.74,11.74,0,0,1-11.85-11.07,11.54,11.54,0,0,1,3.17-8.53A12,12,0,0,1,144,164.5h0a11.67,11.67,0,1,1,.35,23.34Z"/></g></g></svg>